<svg width="20" height="20" viewBox="0 0 20 20" fill="none" xmlns="http://www.w3.org/2000/svg">
<g clip-path="url(#clip0_22_24799)">
<rect width="20" height="20" fill="white"/>
<path d="M10.8359 3.33333L16.6693 9.16667" stroke="#64748B" stroke-width="1.5" stroke-linejoin="round"/>
<path d="M11.7255 3.23787C12.3465 2.56507 12.657 2.22867 12.9869 2.03244C13.783 1.55897 14.7633 1.54424 15.5727 1.9936C15.9081 2.17983 16.2281 2.50677 16.8682 3.16063C17.5083 3.8145 17.8284 4.14143 18.0106 4.48411C18.4506 5.31093 18.4361 6.31232 17.9726 7.12558C17.7806 7.46263 17.4512 7.77982 16.7926 8.41417L8.95623 15.9619C7.70813 17.1641 7.08406 17.7652 6.30411 18.0698C5.52416 18.3744 4.66673 18.352 2.95186 18.3072L2.71855 18.3011C2.19649 18.2874 1.93546 18.2806 1.78372 18.1083C1.63198 17.9362 1.6527 17.6703 1.69413 17.1385L1.71663 16.8497C1.83324 15.3529 1.89154 14.6046 2.18382 13.9318C2.4761 13.2591 2.98026 12.7129 3.98859 11.6204L11.7255 3.23787Z" stroke="#64748B" stroke-width="1.5" stroke-linejoin="round"/>
</g>
<defs>
<clipPath id="clip0_22_24799">
<rect width="20" height="20" fill="white"/>
</clipPath>
</defs>
</svg>
