<svg id="Layer_1" data-name="Layer 1" xmlns="http://www.w3.org/2000/svg" viewBox="0 0 400 400"><defs><style>.cls-1{fill:#fff;}.cls-2{fill:#80275c;}</style></defs><title>Logo round</title><rect class="cls-1" width="400" height="400" rx="40.03"/><path class="cls-2" d="M93.61,224.09c1.9-16.48,11.55-28.33,24.27-37.22,17.15-12,35.5-22.29,52.85-34,10.29-7,19.66-15.27,30.14-23.53,20.26,23,48.87,34.83,74,51.8,12.43,8.4,23.45,18.23,29.52,32.44,1.11,2.59,1.58,5.46,3,10.43-7.25-6.22-12.07-11.73-18.06-15.23-15-8.76-30.67-16.32-45.76-24.91-13.49-7.67-26.51-16.17-39.89-24-1.75-1-5.41-1.53-6.55-.48-17.93,16.47-40.86,24.09-61.79,35.17C120.09,202.55,104.79,210.18,93.61,224.09Z" transform="translate(0 0)"/><path class="cls-2" d="M195.46,344.35c-16.6-13.93-36.78-19.38-56.86-25-17.71-5-35.61-9.38-53.12-15C63.8,297.38,43.84,287.23,29,269.08a50.16,50.16,0,0,1-3.56-5c-.33-.53-.21-1.35-.47-3.34,20.58,13.11,42.86,19.41,65.08,25.94,19.13,5.62,38.36,11,57.18,17.48,16.51,5.72,32.12,13.55,43.15,28,2.53,3.29,4.32,7.15,6.45,10.74Z" transform="translate(0 0)"/><path class="cls-2" d="M375,261.51c-9.34,17.18-24.07,28.24-41.34,35.05-19,7.47-38.63,13.31-58.22,19-24.42,7.15-49.71,11.84-71.94,29.56,3.55-12.47,10.88-19.37,19-25.4,16.77-12.39,36.44-18.24,56-24.24C302.74,288.1,327,281,351,273,359.37,270.26,367,265.41,375,261.51Z" transform="translate(0 0)"/><path class="cls-2" d="M345.51,326c-4.09,3.93-6.64,6.91-9.7,9.23-15.66,11.9-34.13,16.24-53.08,18.27-20.85,2.23-41.84,3.24-62.76,4.87-4.79.38-9.56,1.09-14.33,1.64l-1.4-2.22c5.42-3.58,10.4-9.08,16.32-10.41,20.13-4.54,40.58-7.68,60.93-11.23,19.84-3.46,39.72-6.78,59.58-10.14C341.76,325.91,342.49,326,345.51,326Z" transform="translate(0 0)"/><path class="cls-2" d="M194.28,359.64c-25.89-2-51.93-2.88-77.61-6.43-15.2-2.1-30.06-7.77-44.59-13.15-6-2.23-10.76-7.9-16.35-12.22,1.65-1.38,2.13-2,2.35-1.94,22.7,8.25,46.69,8.3,70.22,11.42,17.65,2.34,35.12,6.36,52.41,10.7,5.36,1.35,9.85,6.2,14.74,9.45Z" transform="translate(0 0)"/><path class="cls-2" d="M180.75,40c-8.23,17.88-7.16,33.71,6.53,46.83,13.38,12.83,29.08,13,45.7,5.08-3.71,11.86-20.83,21.35-35.13,20.19-18.95-1.52-33.91-15.08-37-33.33C158.2,63,167.67,43.83,180.75,40Z" transform="translate(0 0)"/><path class="cls-2" d="M321.87,266.85,277.94,278c6.79-19.67,8.91-38.68-2.35-57.51,12.5,3.18,22.39,14.74,22,27.38-.5,16.08,3,13.58,15.31,15.73,2.9.51,5.84.78,8.77,1.16Z" transform="translate(0 0)"/><path class="cls-2" d="M120.79,277.52,77.93,266.85l0-2c5.59-.81,11.17-1.74,16.79-2.42,5.86-.71,8.08-3.39,7.81-9.68-.68-16.24,7.07-27.95,19.44-31.31-1.87,8.9-5.07,17.92-5.31,27S119.18,267,120.79,277.52Z" transform="translate(0 0)"/><path class="cls-2" d="M207.51,69.36c-1.26-2.7-2.43-5.2-3.69-7.88l7.43-5.42,6.88,5.35c-.82,2.55-1.65,5.15-2.56,8Z" transform="translate(0 0)"/></svg>