<svg width="20" height="20" viewBox="0 0 20 20" fill="none" xmlns="http://www.w3.org/2000/svg">
<rect width="20" height="20" fill="white"/>
<path d="M16.25 4.58333L15.7336 12.9376C15.6016 15.072 15.5357 16.1393 15.0007 16.9066C14.7361 17.2859 14.3956 17.6061 14.0006 17.8467C13.2017 18.3333 12.1325 18.3333 9.99392 18.3333C7.8526 18.3333 6.78192 18.3333 5.98254 17.8458C5.58733 17.6048 5.24667 17.284 4.98223 16.904C4.4474 16.1355 4.38287 15.0668 4.25384 12.9293L3.75 4.58333" stroke="#64748B" stroke-width="1.5" stroke-linecap="round"/>
<path d="M17.5 4.58333H2.5" stroke="#64748B" stroke-width="1.5" stroke-linecap="round"/>
<path d="M7.5 9.77908H12.5" stroke="#64748B" stroke-width="1.5" stroke-linecap="round"/>
<path d="M13.3799 4.58333L12.811 3.40977C12.4331 2.63022 12.2442 2.24043 11.9183 1.99734C11.8459 1.94342 11.7694 1.89545 11.6894 1.85392C11.3284 1.66667 10.8953 1.66667 10.0289 1.66667C9.14086 1.66667 8.69678 1.66667 8.3299 1.86177C8.24858 1.90501 8.17099 1.95492 8.09791 2.01097C7.7682 2.26392 7.58402 2.66796 7.21567 3.47605L6.71094 4.58333" stroke="#64748B" stroke-width="1.5" stroke-linecap="round"/>
<path d="M8.75 13.0452H11.25" stroke="#64748B" stroke-width="1.5" stroke-linecap="round"/>
</svg>
