<svg width="133" height="125" viewBox="0 0 133 125" fill="none" xmlns="http://www.w3.org/2000/svg">
<rect x="0.5" y="0.5" width="132" height="124" rx="7.5" fill="#F5F5F5" stroke="#E0E2EE"/>
<path d="M40.218 19V9.13H41.366V17.992H46.392V19H40.218ZM49.8076 19.126C49.3409 19.126 48.9209 19.0373 48.5476 18.86C48.1836 18.6733 47.8942 18.4213 47.6796 18.104C47.4649 17.7867 47.3576 17.432 47.3576 17.04C47.3576 16.5453 47.4836 16.1533 47.7356 15.864C47.9969 15.5747 48.4216 15.3693 49.0096 15.248C49.6069 15.1173 50.4189 15.052 51.4456 15.052H51.8936V14.618C51.8936 14.0393 51.7722 13.624 51.5296 13.372C51.2962 13.1107 50.9182 12.98 50.3956 12.98C49.9849 12.98 49.5882 13.0407 49.2056 13.162C48.8229 13.274 48.4309 13.4607 48.0296 13.722L47.6376 12.896C47.9922 12.644 48.4216 12.4433 48.9256 12.294C49.4389 12.1447 49.9289 12.07 50.3956 12.07C51.2729 12.07 51.9216 12.2847 52.3416 12.714C52.7709 13.1433 52.9856 13.8107 52.9856 14.716V19H51.9216V17.824C51.7442 18.2253 51.4689 18.5427 51.0956 18.776C50.7316 19.0093 50.3022 19.126 49.8076 19.126ZM49.9896 18.272C50.5496 18.272 51.0069 18.0807 51.3616 17.698C51.7162 17.306 51.8936 16.8113 51.8936 16.214V15.794H51.4596C50.7036 15.794 50.1062 15.8313 49.6676 15.906C49.2382 15.9713 48.9349 16.0927 48.7576 16.27C48.5896 16.438 48.5056 16.6713 48.5056 16.97C48.5056 17.3527 48.6362 17.6653 48.8976 17.908C49.1682 18.1507 49.5322 18.272 49.9896 18.272ZM55.805 21.52L56.967 18.888L54.097 12.196H55.329L57.583 17.712L59.851 12.196H61.041L56.995 21.52H55.805ZM64.9447 19.126C64.2821 19.126 63.7081 18.9813 63.2227 18.692C62.7374 18.4027 62.3594 17.9967 62.0887 17.474C61.8274 16.942 61.6967 16.3167 61.6967 15.598C61.6967 14.8793 61.8274 14.2587 62.0887 13.736C62.3594 13.204 62.7374 12.7933 63.2227 12.504C63.7081 12.2147 64.2821 12.07 64.9447 12.07C65.5981 12.07 66.1674 12.2147 66.6527 12.504C67.1474 12.7933 67.5254 13.204 67.7867 13.736C68.0574 14.2587 68.1927 14.8793 68.1927 15.598C68.1927 16.3167 68.0574 16.942 67.7867 17.474C67.5254 17.9967 67.1474 18.4027 66.6527 18.692C66.1674 18.9813 65.5981 19.126 64.9447 19.126ZM64.9447 18.216C65.5794 18.216 66.0881 17.992 66.4707 17.544C66.8534 17.0867 67.0447 16.438 67.0447 15.598C67.0447 14.7487 66.8534 14.1 66.4707 13.652C66.0881 13.204 65.5794 12.98 64.9447 12.98C64.3007 12.98 63.7874 13.204 63.4047 13.652C63.0314 14.1 62.8447 14.7487 62.8447 15.598C62.8447 16.438 63.0314 17.0867 63.4047 17.544C63.7874 17.992 64.3007 18.216 64.9447 18.216ZM72.304 19.126C70.6707 19.126 69.854 18.2253 69.854 16.424V12.196H70.988V16.41C70.988 17.0167 71.1094 17.4647 71.352 17.754C71.604 18.0433 71.996 18.188 72.528 18.188C73.1067 18.188 73.578 17.9967 73.942 17.614C74.306 17.222 74.488 16.704 74.488 16.06V12.196H75.622V19H74.516V17.852C74.3014 18.2627 73.998 18.58 73.606 18.804C73.2234 19.0187 72.7894 19.126 72.304 19.126ZM80.4737 19.126C79.671 19.126 79.069 18.916 78.6677 18.496C78.2664 18.0667 78.0657 17.4507 78.0657 16.648V13.078H76.7357V12.196H78.0657V10.11H79.1997V12.196H81.3557V13.078H79.1997V16.536C79.1997 17.068 79.3117 17.474 79.5357 17.754C79.7597 18.0247 80.1237 18.16 80.6277 18.16C80.777 18.16 80.9264 18.1413 81.0757 18.104C81.225 18.0667 81.3604 18.0293 81.4817 17.992L81.6777 18.86C81.5564 18.9253 81.379 18.986 81.1457 19.042C80.9124 19.098 80.6884 19.126 80.4737 19.126ZM86.9059 19V18.02H89.1599V10.516L87.3819 11.636L86.8919 10.782L89.4819 9.13H90.3079V18.02H92.4219V19H86.9059Z" fill="#333333"/>
<rect x="6" y="29" width="79" height="48" fill="#DAE9FF"/>
<rect x="92" y="29" width="34" height="48" fill="#DAE9FF"/>
<rect x="5.98438" y="84.0742" width="119.7" height="18.6636" fill="#DAE9FF"/>
<rect x="5.98438" y="107.714" width="119.7" height="10.576" fill="#DAE9FF"/>
</svg>
