<svg width="22" height="20" viewBox="0 0 22 20" fill="none" xmlns="http://www.w3.org/2000/svg">
<path d="M14.001 17.128C14.854 17.3757 15.7378 17.5009 16.626 17.5C18.0544 17.5021 19.4642 17.1764 20.747 16.548C20.7849 15.6517 20.5296 14.7675 20.0198 14.0293C19.5099 13.2912 18.7734 12.7394 17.9217 12.4575C17.07 12.1757 16.1497 12.1791 15.3002 12.4674C14.4506 12.7557 13.7183 13.313 13.214 14.055M14.001 17.128V17.125C14.001 16.012 13.715 14.965 13.214 14.055M14.001 17.128V17.234C12.0765 18.3931 9.87161 19.0038 7.625 19C5.294 19 3.113 18.355 1.251 17.234L1.25 17.125C1.24923 15.7095 1.71961 14.3339 2.58698 13.2153C3.45435 12.0966 4.66937 11.2984 6.04049 10.9466C7.41161 10.5948 8.86082 10.7093 10.1597 11.2721C11.4585 11.8349 12.5331 12.814 13.214 14.055M11.001 4.375C11.001 5.27011 10.6454 6.12855 10.0125 6.76149C9.37955 7.39442 8.52111 7.75 7.626 7.75C6.7309 7.75 5.87245 7.39442 5.23952 6.76149C4.60658 6.12855 4.251 5.27011 4.251 4.375C4.251 3.47989 4.60658 2.62145 5.23952 1.98851C5.87245 1.35558 6.7309 1 7.626 1C8.52111 1 9.37955 1.35558 10.0125 1.98851C10.6454 2.62145 11.001 3.47989 11.001 4.375ZM19.251 6.625C19.251 7.32119 18.9744 7.98887 18.4822 8.48116C17.9899 8.97344 17.3222 9.25 16.626 9.25C15.9298 9.25 15.2621 8.97344 14.7698 8.48116C14.2776 7.98887 14.001 7.32119 14.001 6.625C14.001 5.92881 14.2776 5.26113 14.7698 4.76884C15.2621 4.27656 15.9298 4 16.626 4C17.3222 4 17.9899 4.27656 18.4822 4.76884C18.9744 5.26113 19.251 5.92881 19.251 6.625Z" stroke-width="1.5" stroke-linecap="round" stroke-linejoin="round"/>
</svg>
