<svg width="7" height="12" viewBox="0 0 7 12" fill="none" xmlns="http://www.w3.org/2000/svg">
<path fill-rule="evenodd" clip-rule="evenodd" d="M5.94122 0.558058C6.1853 0.802135 6.1853 1.19786 5.94123 1.44194L1.53048 5.85269C1.47211 5.91106 1.42478 5.95842 1.38452 6C1.42478 6.04158 1.47208 6.08891 1.53046 6.14728L5.94123 10.5581C6.1853 10.8021 6.1853 11.1979 5.94122 11.4419C5.69715 11.686 5.30142 11.686 5.05734 11.4419L0.646626 7.03122C0.646617 7.03121 0.646635 7.03123 0.646626 7.03122C0.639946 7.02454 0.633201 7.0178 0.626451 7.01106C0.505482 6.8902 0.374676 6.75951 0.279144 6.63429C0.167279 6.48767 0.046875 6.27788 0.046875 6C0.046875 5.72212 0.167279 5.51233 0.279144 5.36571C0.374676 5.24049 0.505482 5.1098 0.626451 4.98894C0.633201 4.9822 0.639919 4.97549 0.646599 4.96881C0.64659 4.96882 0.646608 4.9688 0.646599 4.96881L5.05734 0.558059C5.30142 0.313981 5.69715 0.31398 5.94122 0.558058Z" fill="#141B34"/>
</svg>
