<svg width="86" height="76" viewBox="0 0 86 76" fill="none" xmlns="http://www.w3.org/2000/svg">
<path d="M0 50.6362C7.98487 66.9725 35.5529 63.1807 42.9998 73.1713C40.1341 58.5371 10.2694 60.1599 0 50.6362ZM42.9998 73.1713C50.4466 63.1801 78.0146 66.9725 85.9995 50.6362C75.7301 60.1599 45.8654 58.5371 42.9998 73.1713Z" fill="white"/>
<path d="M44.8676 5.74123H42.4531L44.4062 7.12115L43.6604 9.35407L45.6135 7.97414L47.5666 9.35407L46.8207 7.12115L48.7738 5.74123H46.3593L45.6135 3.50831L44.8676 5.74123Z" fill="white"/>
<path d="M42.9982 21.2208C35.1176 31.1889 17.1381 32.8986 17.1381 46.3017C19.1594 38.0015 37.3217 34.9625 42.9982 28.3383C48.6754 34.9625 66.837 38.0015 68.8583 46.3017C68.8583 32.8986 50.8788 31.1889 42.9982 21.2208ZM74.0902 53.0499C74.0902 53.0499 68.8583 52.8315 66.1362 52.018C67.0423 47.6153 65.1213 43.5219 59.4448 41.8841C63.445 45.1527 63.3252 52.4848 60.6411 56.8461C66.7675 54.7108 71.7748 54.4092 74.0902 53.0499ZM26.5516 41.8841C20.8744 43.5225 18.9535 47.6159 19.8602 52.018C17.1381 52.8315 11.9062 53.0499 11.9062 53.0499C14.2217 54.4092 19.2289 54.7108 25.3553 56.8461C22.6718 52.4854 22.5515 45.1527 26.5516 41.8841Z" fill="white"/>
<path d="M7.71875 66.0125C13.3728 77.2384 37.9587 73.2057 43.0007 75.9999C38.3924 66.935 16.064 71.6311 7.71875 66.0125ZM43.0007 75.9993C48.0427 73.205 72.6286 77.2384 78.2826 66.0119C69.9374 71.6311 47.609 66.935 43.0007 75.9993Z" fill="white"/>
<path d="M52.0525 11.8812C50.7436 15.5228 47.1887 18.1324 42.9987 18.1324C37.7012 18.1324 33.4141 13.9601 33.4141 8.80839C33.4141 4.72618 36.1014 1.26165 39.8577 0C38.3242 1.50634 37.3872 3.58906 37.3872 5.88206C37.3872 10.5144 41.2477 14.2762 46.0111 14.2762C48.3619 14.2762 50.4997 13.3575 52.0525 11.8812Z" fill="white"/>
<path d="M78.2819 66.0126C69.6117 74.5237 48.0999 70.3845 43 76C47.6083 66.935 69.9367 71.6312 78.2819 66.0126Z" fill="white"/>
<path d="M7.71875 66.0126C16.389 74.5237 37.9008 70.3845 43.0007 76C38.3924 66.935 16.064 71.6312 7.71875 66.0126Z" fill="white"/>
<path d="M85.9998 50.6362C78.3244 61.9454 48.7814 60.8646 43 73.1713C45.8656 58.5371 75.7304 60.1599 85.9998 50.6362Z" fill="white"/>
<path d="M0 50.6362C7.67533 61.9454 37.2183 60.8646 42.9998 73.1713C40.1341 58.5371 10.2694 60.1599 0 50.6362Z" fill="white"/>
<path d="M63.5735 54.0369C65.452 50.3352 64.4642 43.5563 59.4453 41.8841C65.1225 43.5225 67.0434 47.616 66.1367 52.018C68.8588 52.8315 74.0907 53.05 74.0907 53.05C70.9162 53.9881 66.7686 53.0274 63.5735 54.0369Z" fill="white"/>
<path d="M22.4234 54.0369C20.5449 50.3352 21.5328 43.5563 26.5516 41.8841C20.8744 43.5225 18.9535 47.616 19.8602 52.018C17.1381 52.8315 11.9062 53.05 11.9062 53.05C15.0808 53.9881 19.2283 53.0274 22.4234 54.0369Z" fill="white"/>
<path d="M52.0542 11.8812C47.6705 17.6919 40.2043 17.0179 36.9281 12.9507C34.0625 9.3879 34.1552 3.61848 39.8594 0C38.3259 1.50634 37.3889 3.58906 37.3889 5.88206C37.3889 10.5144 41.2494 14.2762 46.0128 14.2762C48.3636 14.2762 50.5014 13.3575 52.0542 11.8812Z" fill="white"/>
<path d="M43.0007 25.1935C35.8093 32.5632 18.0776 35.7455 17.1406 46.3011C19.1619 38.0009 37.3242 34.9619 43.0007 28.3377C48.6779 34.9619 66.8395 38.0009 68.8608 46.3011C67.9238 35.7455 50.1921 32.5638 43.0007 25.1935Z" fill="white"/>
</svg>
