<svg width="17" height="14" viewBox="0 0 17 14" fill="none" xmlns="http://www.w3.org/2000/svg">
<path d="M5.47604 1.75H15.6094M5.47604 7H15.6094M5.47604 12.25H15.6094M1.67604 1.75H1.68195V1.758H1.67604V1.75ZM1.99271 1.75C1.99271 1.84946 1.95935 1.94484 1.89996 2.01516C1.84057 2.08549 1.76003 2.125 1.67604 2.125C1.59206 2.125 1.51151 2.08549 1.45212 2.01516C1.39274 1.94484 1.35938 1.84946 1.35938 1.75C1.35938 1.65054 1.39274 1.55516 1.45212 1.48484C1.51151 1.41451 1.59206 1.375 1.67604 1.375C1.76003 1.375 1.84057 1.41451 1.89996 1.48484C1.95935 1.55516 1.99271 1.65054 1.99271 1.75ZM1.67604 7H1.68195V7.008H1.67604V7ZM1.99271 7C1.99271 7.09946 1.95935 7.19484 1.89996 7.26517C1.84057 7.33549 1.76003 7.375 1.67604 7.375C1.59206 7.375 1.51151 7.33549 1.45212 7.26517C1.39274 7.19484 1.35938 7.09946 1.35938 7C1.35938 6.90054 1.39274 6.80516 1.45212 6.73483C1.51151 6.66451 1.59206 6.625 1.67604 6.625C1.76003 6.625 1.84057 6.66451 1.89996 6.73483C1.95935 6.80516 1.99271 6.90054 1.99271 7ZM1.67604 12.25H1.68195V12.258H1.67604V12.25ZM1.99271 12.25C1.99271 12.3495 1.95935 12.4448 1.89996 12.5152C1.84057 12.5855 1.76003 12.625 1.67604 12.625C1.59206 12.625 1.51151 12.5855 1.45212 12.5152C1.39274 12.4448 1.35938 12.3495 1.35938 12.25C1.35938 12.1505 1.39274 12.0552 1.45212 11.9848C1.51151 11.9145 1.59206 11.875 1.67604 11.875C1.76003 11.875 1.84057 11.9145 1.89996 11.9848C1.95935 12.0552 1.99271 12.1505 1.99271 12.25Z"  stroke-width="1.5" stroke-linecap="round" stroke-linejoin="round"/>
</svg>
