<svg width="380" height="380" viewBox="0 0 380 380" fill="none" xmlns="http://www.w3.org/2000/svg">
<mask id="mask0_1_3" style="mask-type:luminance" maskUnits="userSpaceOnUse" x="35" y="82" width="319" height="184">
<path fill-rule="evenodd" clip-rule="evenodd" d="M113.823 114.672H73.0648C67.7687 114.672 63.437 119.049 63.437 124.4C63.437 129.751 67.7687 134.128 73.0648 134.128H93.8072H99.886C105.182 134.128 109.514 138.507 109.514 143.858C109.514 146.532 108.428 148.97 106.683 150.727C104.944 152.492 102.531 153.588 99.886 153.588H86.9175H79.7575H44.8232C39.5271 153.588 35.1953 157.966 35.1953 163.316C35.1953 168.666 39.5271 173.045 44.8232 173.045H69.8326C62.2826 190.974 58.1014 210.702 58.1014 231.42C58.1014 238.937 58.6533 246.324 59.712 253.542C60.154 256.558 60.6876 259.549 61.3112 262.507C79.4759 259.699 98.7443 257.44 118.86 255.793L120.374 257.188L121.798 255.56C145.966 253.66 171.331 252.648 197.494 252.648C253.079 252.648 305.094 257.213 349.567 265.152C351.282 257.643 352.438 249.917 352.984 242.018C353.233 238.515 353.356 234.981 353.356 231.42C353.356 149.028 287.264 82.2413 205.729 82.2413C170.979 82.2413 139.041 94.3744 113.823 114.672Z" fill="white"/>
</mask>
<g mask="url(#mask0_1_3)">
<path fill-rule="evenodd" clip-rule="evenodd" d="M28.1562 272.242H360.394V75.1518H28.1562V272.242Z" fill="#F1F2F7"/>
</g>
<mask id="mask1_1_3" style="mask-type:luminance" maskUnits="userSpaceOnUse" x="0" y="153" width="26" height="20">
<path fill-rule="evenodd" clip-rule="evenodd" d="M9.75175 153.136C4.38808 153.136 0 157.604 0 163.062C0 168.519 4.38808 172.987 9.75175 172.987H15.587C20.9521 172.987 25.3402 168.519 25.3402 163.062C25.3402 157.604 20.9521 153.136 15.587 153.136H9.75175Z" fill="white"/>
</mask>
<g mask="url(#mask1_1_3)">
<path fill-rule="evenodd" clip-rule="evenodd" d="M-7.03906 180.077H32.379V146.047H-7.03906V180.077Z" fill="#F1F2F7"/>
</g>
<mask id="mask2_1_3" style="mask-type:luminance" maskUnits="userSpaceOnUse" x="61" y="252" width="319" height="129">
<path fill-rule="evenodd" clip-rule="evenodd" d="M121.579 255.753L120.153 257.371L118.64 255.984C98.5294 257.622 79.2666 259.864 61.1047 262.656C75.2544 329.698 134.522 380.001 205.488 380.001C238.716 380.001 269.376 368.967 294.05 350.354H320.315C325.609 350.354 329.94 346.002 329.94 340.686C329.94 338.032 328.855 335.607 327.111 333.862C325.371 332.108 322.958 331.019 320.315 331.019H308.892C303.598 331.019 299.266 326.669 299.266 321.352C299.266 318.696 300.351 316.273 302.096 314.526C303.836 312.772 306.249 311.684 308.892 311.684H370.375C375.67 311.684 380 307.334 380 302.016C380 299.36 378.914 296.937 377.17 295.191C375.425 293.437 373.023 292.348 370.375 292.348H340.227C344.077 283.732 347.132 274.682 349.293 265.286C304.83 257.398 252.827 252.859 197.255 252.859C171.1 252.859 145.738 253.865 121.579 255.753Z" fill="white"/>
</mask>
<g mask="url(#mask2_1_3)">
<path fill-rule="evenodd" clip-rule="evenodd" d="M54.0657 387.091H387.037V245.77H54.0657V387.091Z" fill="#E8EBF2"/>
</g>
<mask id="mask3_1_3" style="mask-type:luminance" maskUnits="userSpaceOnUse" x="121" y="235" width="231" height="31">
<path fill-rule="evenodd" clip-rule="evenodd" d="M323.476 254.238L308.612 240.517L292.707 252.407L286.04 243.155L259.72 252.407L199.088 243.155L163.844 252.956C174.62 252.593 185.57 252.407 196.665 252.407C252.176 252.407 304.123 257.059 348.539 265.15C350.248 257.496 351.404 249.624 351.948 241.574L346.917 235.374L323.476 254.238ZM121.071 255.375C134.958 254.26 149.24 253.446 163.844 252.956L137.808 235.844L121.071 255.375Z" fill="white"/>
</mask>
<g mask="url(#mask3_1_3)">
<path fill-rule="evenodd" clip-rule="evenodd" d="M114.031 272.241H358.987V228.286H114.031V272.241Z" fill="#E0E2EE"/>
</g>
<mask id="mask4_1_3" style="mask-type:luminance" maskUnits="userSpaceOnUse" x="118" y="255" width="4" height="2">
<path fill-rule="evenodd" clip-rule="evenodd" d="M118.255 255.43L119.705 256.645L121.07 255.225C120.13 255.288 119.188 255.356 118.255 255.43Z" fill="white"/>
</mask>
<g mask="url(#mask4_1_3)">
<path fill-rule="evenodd" clip-rule="evenodd" d="M111.216 263.733H128.109V248.136H111.216V263.733Z" fill="#F1F2F7"/>
</g>
<mask id="mask5_1_3" style="mask-type:luminance" maskUnits="userSpaceOnUse" x="59" y="229" width="60" height="34">
<path fill-rule="evenodd" clip-rule="evenodd" d="M59.1272 253.337C59.5692 256.358 60.1028 259.353 60.7236 262.315C78.8827 259.503 98.1455 257.242 118.254 255.591L90.252 229.703L59.1272 253.337Z" fill="white"/>
</mask>
<g mask="url(#mask5_1_3)">
<path fill-rule="evenodd" clip-rule="evenodd" d="M52.0886 269.405H125.294V222.614H52.0886V269.405Z" fill="#E0E2EE"/>
</g>
<mask id="mask6_1_3" style="mask-type:luminance" maskUnits="userSpaceOnUse" x="153" y="308" width="110" height="11">
<path fill-rule="evenodd" clip-rule="evenodd" d="M153.052 313.666C153.052 316.406 177.633 318.629 207.957 318.629C238.28 318.629 262.861 316.406 262.861 313.666C262.861 310.927 238.28 308.704 207.957 308.704C177.633 308.704 153.052 310.927 153.052 313.666Z" fill="white"/>
</mask>
<g mask="url(#mask6_1_3)">
<path fill-rule="evenodd" clip-rule="evenodd" d="M146.013 325.719H269.899V301.614H146.013V325.719Z" fill="#D8DBEA"/>
</g>
<mask id="mask7_1_3" style="mask-type:luminance" maskUnits="userSpaceOnUse" x="339" y="330" width="20" height="21">
<path fill-rule="evenodd" clip-rule="evenodd" d="M339.275 340.301C339.275 345.76 343.71 350.226 349.13 350.226C354.55 350.226 358.984 345.76 358.984 340.301C358.984 334.844 354.55 330.376 349.13 330.376C343.71 330.376 339.275 334.844 339.275 340.301Z" fill="white"/>
</mask>
<g mask="url(#mask7_1_3)">
<path fill-rule="evenodd" clip-rule="evenodd" d="M332.236 357.316H366.023V323.286H332.236V357.316Z" fill="#E1E3EF"/>
</g>
<path fill-rule="evenodd" clip-rule="evenodd" d="M206.507 193.164C201.923 193.164 198.206 189.42 198.206 184.804C198.206 180.188 201.923 176.446 206.507 176.446C211.09 176.446 214.807 180.188 214.807 184.804C214.807 189.42 211.09 193.164 206.507 193.164M206.506 172.984C200.025 172.984 194.769 178.276 194.769 184.804C194.769 191.335 200.025 196.627 206.506 196.627C212.988 196.627 218.244 191.335 218.244 184.804C218.244 178.276 212.988 172.984 206.506 172.984" fill="#D8DBEA"/>
<path fill-rule="evenodd" clip-rule="evenodd" d="M238.317 295.633H174.701C168.365 295.633 163.227 290.46 163.227 284.078V225.155C163.227 202.15 181.917 183.327 204.757 183.327H208.259C231.102 183.327 249.789 202.15 249.789 225.155V284.078C249.789 290.46 244.654 295.633 238.317 295.633" fill="#D8DBEA"/>
<path fill-rule="evenodd" clip-rule="evenodd" d="M254.997 281.597H254.375C251.849 281.597 249.784 279.516 249.784 276.973V244.106C249.784 241.562 251.849 239.482 254.375 239.482H260.599C263.123 239.482 265.188 241.562 265.188 244.106V271.331C265.188 276.978 260.602 281.597 254.997 281.597Z" fill="#A35D8F"/>
<path fill-rule="evenodd" clip-rule="evenodd" d="M158.634 281.597H158.012C152.405 281.597 147.818 276.978 147.818 271.331V244.106C147.818 241.562 149.884 239.482 152.409 239.482H158.634C161.159 239.482 163.224 241.562 163.224 244.106V276.973C163.224 279.516 161.159 281.597 158.634 281.597Z" fill="#A35D8F"/>
<path fill-rule="evenodd" clip-rule="evenodd" d="M233.646 279.732L205.77 288.617L177.893 279.732V260.539H233.646V279.732Z" fill="#BEC0D6"/>
<path fill-rule="evenodd" clip-rule="evenodd" d="M189.177 284.838L187.869 286.151C186.783 287.241 185.023 287.241 183.935 286.151L182.628 284.838V272.563H189.177V284.838Z" fill="#A35D8F"/>
<path fill-rule="evenodd" clip-rule="evenodd" d="M187.223 282.677C187.223 283.414 186.63 284.009 185.9 284.009C185.168 284.009 184.575 283.414 184.575 282.677C184.575 281.939 185.168 281.344 185.9 281.344C186.63 281.344 187.223 281.939 187.223 282.677" fill="#F7FFF6"/>
<path fill-rule="evenodd" clip-rule="evenodd" d="M226.588 284.838L225.28 286.151C224.193 287.241 222.434 287.241 221.345 286.151L220.039 284.838V272.563H226.588V284.838Z" fill="#A35D8F"/>
<path fill-rule="evenodd" clip-rule="evenodd" d="M224.639 282.677C224.639 283.414 224.046 284.009 223.316 284.009C222.584 284.009 221.991 283.414 221.991 282.677C221.991 281.939 222.584 281.344 223.316 281.344C224.046 281.344 224.639 281.939 224.639 282.677" fill="#F7FFF6"/>
<path fill-rule="evenodd" clip-rule="evenodd" d="M245.63 227.319V233.569V246.544L172.147 211.096C177.032 198.519 189.239 189.565 203.397 189.565H209.618C228.074 189.565 245.63 208.714 245.63 227.319" fill="white"/>
<path fill-rule="evenodd" clip-rule="evenodd" d="M172.147 230.586V224.336V211.361L245.63 246.81C240.747 259.385 228.54 268.339 214.38 268.339H208.161C189.703 268.339 172.147 249.191 172.147 230.586" fill="#A35D8F"/>
<path d="M230.142 59.5528C181.376 63.7106 163.453 105.285 178.136 129.519C188.496 146.617 206.053 169.725 238.779 164.183C271.505 158.638 274.262 128.134 257.027 123.985C239.792 119.837 178.392 139.188 185.331 183.894C190.34 216.151 233.758 225.449 233.758 225.449" stroke="#D7DAE9" stroke-width="2" stroke-dasharray="7"/>
<path fill-rule="evenodd" clip-rule="evenodd" d="M258.329 34.03C258.329 34.03 265.316 15.6447 266.053 8.49261C266.441 4.75543 260.292 -5.64969 253.095 3.97505C245.899 13.5998 249.182 25.4009 258.329 34.03" fill="#D8DBEA"/>
<path fill-rule="evenodd" clip-rule="evenodd" d="M233.533 14.0053C225.346 11.217 221.641 13.3909 220.062 17.7302C218.481 22.0709 220.687 30.3331 233.034 32.2166C245.382 34.1 257.624 34.0277 257.624 34.0277C257.624 34.0277 241.719 16.7935 233.533 14.0053" fill="#D8DBEA"/>
<path fill-rule="evenodd" clip-rule="evenodd" d="M256.943 37.6723C257.128 36.9038 257.374 36.1672 257.648 35.4473C256.137 35.6878 254.599 36.0255 253.051 36.4827C251.372 36.9775 249.805 37.6265 248.332 38.37C247.692 39.5874 247.174 40.8882 246.837 42.2849C244.763 50.8833 249.66 59.5499 257.888 62.3877C258.779 62.2098 259.675 62.0042 260.571 61.7401C263.077 61.0008 265.389 60.0224 267.478 58.8883C259.443 55.3375 254.818 46.4764 256.943 37.6723" fill="#D8DBEA"/>
<path fill-rule="evenodd" clip-rule="evenodd" d="M245.195 42.1551C245.392 41.3057 245.658 40.4934 245.954 39.6998C238.835 44.293 234.849 51.4217 235.506 55.5788C230.957 57.548 228.06 59.2068 228.06 59.2068C228.06 59.2068 231.492 58.9437 236.493 57.9756C239.172 61.9181 246.598 64.558 254.808 63.6113C247.37 59.7374 243.172 50.9212 245.195 42.1551" fill="#D8DBEA"/>
<path fill-rule="evenodd" clip-rule="evenodd" d="M268.768 45.2728C266.882 44.817 265.713 42.9091 266.167 40.9983C266.619 39.1007 268.525 37.9247 270.41 38.3805C272.304 38.8392 273.462 40.7544 273.01 42.6535C272.555 44.5628 270.663 45.73 268.768 45.2728M277.029 42.721C275.511 37.4267 268.534 34.6926 260.302 35.6288C259.958 36.4492 259.666 37.3146 259.457 38.211C257.624 46.0694 261.858 53.9742 269.038 56.7161C275.03 52.877 278.394 47.441 277.029 42.721" fill="#D8DBEA"/>
</svg>
