<svg width="7" height="12" viewBox="0 0 7 12" fill="none" xmlns="http://www.w3.org/2000/svg">
<path fill-rule="evenodd" clip-rule="evenodd" d="M1.05806 0.558058C1.30214 0.313981 1.69786 0.313981 1.94194 0.558058L6.35269 4.96881C6.35942 4.97554 6.36619 4.9823 6.37299 4.9891C6.49389 5.1099 6.62464 5.24054 6.72012 5.36569C6.83197 5.51229 6.95242 5.72209 6.95242 6C6.95242 6.27791 6.83197 6.48771 6.72012 6.63431C6.62464 6.75946 6.49389 6.8901 6.37299 7.0109C6.36619 7.0177 6.35942 7.02446 6.35269 7.03119L1.94194 11.4419C1.69786 11.686 1.30214 11.686 1.05806 11.4419C0.813981 11.1979 0.813981 10.8021 1.05806 10.5581L5.46881 6.14731C5.52719 6.08893 5.57449 6.04159 5.61476 6C5.57449 5.95841 5.52719 5.91107 5.46881 5.85269L1.05806 1.44194C0.813981 1.19786 0.813981 0.802136 1.05806 0.558058Z" fill="#141B34"/>
</svg>
