<svg width="133" height="126" viewBox="0 0 133 126" fill="none" xmlns="http://www.w3.org/2000/svg">
<rect x="-0.5" y="0.5" width="132" height="125" rx="7.5" transform="matrix(-1 0 0 1 132 0)" fill="#F5F5F5" stroke="#E0E2EE"/>
<path d="M40.218 21V11.13H41.366V19.992H46.392V21H40.218ZM49.8076 21.126C49.3409 21.126 48.9209 21.0373 48.5476 20.86C48.1836 20.6733 47.8942 20.4213 47.6796 20.104C47.4649 19.7867 47.3576 19.432 47.3576 19.04C47.3576 18.5453 47.4836 18.1533 47.7356 17.864C47.9969 17.5747 48.4216 17.3693 49.0096 17.248C49.6069 17.1173 50.4189 17.052 51.4456 17.052H51.8936V16.618C51.8936 16.0393 51.7722 15.624 51.5296 15.372C51.2962 15.1107 50.9182 14.98 50.3956 14.98C49.9849 14.98 49.5882 15.0407 49.2056 15.162C48.8229 15.274 48.4309 15.4607 48.0296 15.722L47.6376 14.896C47.9922 14.644 48.4216 14.4433 48.9256 14.294C49.4389 14.1447 49.9289 14.07 50.3956 14.07C51.2729 14.07 51.9216 14.2847 52.3416 14.714C52.7709 15.1433 52.9856 15.8107 52.9856 16.716V21H51.9216V19.824C51.7442 20.2253 51.4689 20.5427 51.0956 20.776C50.7316 21.0093 50.3022 21.126 49.8076 21.126ZM49.9896 20.272C50.5496 20.272 51.0069 20.0807 51.3616 19.698C51.7162 19.306 51.8936 18.8113 51.8936 18.214V17.794H51.4596C50.7036 17.794 50.1062 17.8313 49.6676 17.906C49.2382 17.9713 48.9349 18.0927 48.7576 18.27C48.5896 18.438 48.5056 18.6713 48.5056 18.97C48.5056 19.3527 48.6362 19.6653 48.8976 19.908C49.1682 20.1507 49.5322 20.272 49.9896 20.272ZM55.805 23.52L56.967 20.888L54.097 14.196H55.329L57.583 19.712L59.851 14.196H61.041L56.995 23.52H55.805ZM64.9447 21.126C64.2821 21.126 63.7081 20.9813 63.2227 20.692C62.7374 20.4027 62.3594 19.9967 62.0887 19.474C61.8274 18.942 61.6967 18.3167 61.6967 17.598C61.6967 16.8793 61.8274 16.2587 62.0887 15.736C62.3594 15.204 62.7374 14.7933 63.2227 14.504C63.7081 14.2147 64.2821 14.07 64.9447 14.07C65.5981 14.07 66.1674 14.2147 66.6527 14.504C67.1474 14.7933 67.5254 15.204 67.7867 15.736C68.0574 16.2587 68.1927 16.8793 68.1927 17.598C68.1927 18.3167 68.0574 18.942 67.7867 19.474C67.5254 19.9967 67.1474 20.4027 66.6527 20.692C66.1674 20.9813 65.5981 21.126 64.9447 21.126ZM64.9447 20.216C65.5794 20.216 66.0881 19.992 66.4707 19.544C66.8534 19.0867 67.0447 18.438 67.0447 17.598C67.0447 16.7487 66.8534 16.1 66.4707 15.652C66.0881 15.204 65.5794 14.98 64.9447 14.98C64.3007 14.98 63.7874 15.204 63.4047 15.652C63.0314 16.1 62.8447 16.7487 62.8447 17.598C62.8447 18.438 63.0314 19.0867 63.4047 19.544C63.7874 19.992 64.3007 20.216 64.9447 20.216ZM72.304 21.126C70.6707 21.126 69.854 20.2253 69.854 18.424V14.196H70.988V18.41C70.988 19.0167 71.1094 19.4647 71.352 19.754C71.604 20.0433 71.996 20.188 72.528 20.188C73.1067 20.188 73.578 19.9967 73.942 19.614C74.306 19.222 74.488 18.704 74.488 18.06V14.196H75.622V21H74.516V19.852C74.3014 20.2627 73.998 20.58 73.606 20.804C73.2234 21.0187 72.7894 21.126 72.304 21.126ZM80.4737 21.126C79.671 21.126 79.069 20.916 78.6677 20.496C78.2664 20.0667 78.0657 19.4507 78.0657 18.648V15.078H76.7357V14.196H78.0657V12.11H79.1997V14.196H81.3557V15.078H79.1997V18.536C79.1997 19.068 79.3117 19.474 79.5357 19.754C79.7597 20.0247 80.1237 20.16 80.6277 20.16C80.777 20.16 80.9264 20.1413 81.0757 20.104C81.225 20.0667 81.3604 20.0293 81.4817 19.992L81.6777 20.86C81.5564 20.9253 81.379 20.986 81.1457 21.042C80.9124 21.098 80.6884 21.126 80.4737 21.126ZM89.2579 21.126C88.6046 21.126 87.9839 21.028 87.3959 20.832C86.8079 20.6267 86.3133 20.3327 85.9119 19.95L86.3319 19.04C86.7893 19.4133 87.2513 19.684 87.7179 19.852C88.1846 20.02 88.6886 20.104 89.2299 20.104C89.9393 20.104 90.4806 19.95 90.8539 19.642C91.2366 19.3247 91.4279 18.8627 91.4279 18.256C91.4279 17.6773 91.2366 17.2387 90.8539 16.94C90.4713 16.6413 89.9159 16.492 89.1879 16.492H87.7319V15.498H89.0899C89.7246 15.498 90.2239 15.3347 90.5879 15.008C90.9613 14.672 91.1479 14.2147 91.1479 13.636C91.1479 13.1227 90.9753 12.726 90.6299 12.446C90.2939 12.166 89.8133 12.026 89.1879 12.026C88.1613 12.026 87.2653 12.3993 86.4999 13.146L86.0799 12.25C86.4439 11.858 86.9059 11.5547 87.4659 11.34C88.0353 11.116 88.6326 11.004 89.2579 11.004C90.2099 11.004 90.9519 11.228 91.4839 11.676C92.0253 12.124 92.2959 12.7447 92.2959 13.538C92.2959 14.0887 92.1559 14.574 91.8759 14.994C91.5959 15.4047 91.2086 15.7033 90.7139 15.89C91.3019 16.0487 91.7593 16.3427 92.0859 16.772C92.4126 17.192 92.5759 17.7147 92.5759 18.34C92.5759 19.1893 92.2773 19.866 91.6799 20.37C91.0919 20.874 90.2846 21.126 89.2579 21.126Z" fill="#333333"/>
<rect width="69" height="52" transform="matrix(-1 0 0 1 124 53)" fill="#DAE9FF"/>
<rect width="41" height="67" transform="matrix(-1 0 0 1 49 53)" fill="#DAE9FF"/>
<rect width="116" height="17" transform="matrix(-1 0 0 1 124 31)" fill="#DAE9FF"/>
<rect width="67" height="10" transform="matrix(-1 0 0 1 122 110)" fill="#DAE9FF"/>
</svg>
